<?xml version="1.0" standalone="no"?>
<!DOCTYPE svg PUBLIC "-//W3C//DTD SVG 20010904//EN"
 "http://www.w3.org/TR/2001/REC-SVG-20010904/DTD/svg10.dtd">
<svg version="1.0" xmlns="http://www.w3.org/2000/svg"
 width="249.000000pt" height="249.000000pt" viewBox="0 0 249.000000 249.000000"
 preserveAspectRatio="xMidYMid meet">
<metadata>
Created by potrace 1.14, written by Peter Selinger 2001-2017
</metadata>
<g transform="translate(0.000000,249.000000) scale(0.100000,-0.100000)"
fill="#000000" stroke="none">
<path d="M939 2278 c-96 -38 -225 -89 -288 -114 -63 -24 -130 -56 -149 -71
-32 -24 -34 -28 -27 -67 4 -22 11 -117 15 -211 4 -93 11 -183 15 -199 4 -16
45 -94 91 -174 82 -143 109 -213 191 -487 14 -48 23 -61 41 -63 30 -5 36 16
17 61 l-15 37 47 0 c79 0 173 19 247 50 l69 29 38 -43 c52 -59 88 -73 138 -54
47 19 235 152 262 186 26 33 24 54 -8 92 -22 26 -24 33 -12 41 8 5 45 28 82
51 72 43 103 78 93 103 -10 27 -44 16 -108 -38 -35 -30 -90 -72 -123 -94 -57
-39 -376 -213 -389 -213 -3 0 -30 -12 -59 -26 -57 -29 -176 -42 -259 -30 l-44
7 -37 112 c-21 62 -69 175 -107 252 -60 123 -67 141 -51 146 9 4 46 27 82 52
122 85 206 131 522 289 264 131 328 167 372 209 52 49 54 50 59 28 3 -13 15
-64 26 -114 12 -49 34 -146 50 -215 16 -69 42 -167 60 -219 17 -51 35 -116 41
-142 7 -31 16 -49 25 -49 23 0 17 68 -17 166 -41 122 -63 218 -98 428 -18 106
-35 183 -43 188 -10 7 -9 11 5 19 20 11 22 34 5 45 -6 4 -45 11 -87 15 -88 8
-316 44 -381 60 -115 29 -104 30 -291 -43z m177 13 c18 -18 119 -41 178 -41
54 0 262 -42 295 -60 22 -12 -73 -94 -153 -133 -601 -293 -774 -384 -828 -435
-21 -20 -38 -34 -39 -32 -2 11 -7 50 -18 130 -6 46 -11 137 -11 202 l0 118 38
23 c46 29 186 95 312 148 52 22 120 51 150 64 65 28 63 28 76 16z m446 -1070
l26 -28 -90 -62 c-109 -76 -143 -91 -183 -80 -25 7 -30 13 -30 36 1 25 14 35
121 94 65 37 122 67 125 68 3 1 17 -12 31 -28z"/>
<path d="M1293 1852 c-112 -100 -123 -107 -278 -186 -79 -40 -158 -72 -200
-82 -123 -28 -127 -37 -55 -139 28 -41 65 -105 82 -142 38 -83 54 -103 84
-103 13 0 70 25 126 55 60 31 137 63 182 74 42 11 130 44 194 74 64 30 132 60
150 67 72 28 76 80 12 161 -17 21 -52 89 -77 151 -25 62 -53 121 -61 131 -31
35 -66 22 -159 -61z m178 -124 c25 -58 56 -120 69 -137 12 -18 19 -38 16 -46
-3 -8 -36 -30 -73 -48 -37 -19 -95 -47 -128 -64 -33 -17 -100 -46 -150 -66
-49 -20 -125 -52 -168 -72 -43 -20 -88 -35 -100 -33 -23 3 -62 72 -135 240 -2
5 7 8 20 8 33 1 98 32 160 78 29 22 78 52 108 68 30 16 109 64 174 107 72 47
127 77 140 75 15 -2 31 -29 67 -110z"/>
<path d="M1978 1188 c0 -7 -2 -18 -2 -24 -2 -14 -145 -124 -242 -187 -61 -40
-321 -187 -330 -187 -5 0 -128 -73 -134 -79 -14 -17 -71 -51 -85 -51 -37 0 -8
-59 106 -222 81 -114 111 -140 148 -132 34 8 209 101 431 227 198 112 318 190
381 246 43 38 43 39 29 67 -8 15 -50 54 -94 86 -43 31 -84 65 -91 75 -7 10
-26 56 -43 103 -23 67 -34 86 -51 88 -12 2 -22 -2 -23 -10z m22 -107 c0 -24
53 -105 81 -125 54 -37 119 -109 119 -131 0 -36 -35 -71 -128 -128 -167 -103
-235 -138 -246 -127 -27 27 -74 1 -60 -34 8 -21 -281 -175 -330 -176 -28 0
-94 74 -148 167 -27 44 -48 83 -48 85 0 25 80 80 290 198 179 101 311 186 397
256 54 44 73 48 73 15z"/>
<path d="M1935 1006 c-25 -18 -15 -51 15 -51 20 0 26 6 28 26 4 31 -18 44 -43
25z"/>
<path d="M2030 845 c-17 -21 -5 -45 24 -45 27 0 42 26 25 46 -15 18 -33 18
-49 -1z"/>
<path d="M1766 825 c-9 -24 4 -45 29 -45 24 0 42 30 30 50 -10 15 -52 12 -59
-5z"/>
<path d="M1906 825 c-8 -22 4 -45 24 -45 23 0 42 24 34 44 -8 20 -50 21 -58 1z"/>
<path d="M1614 776 c-10 -26 4 -48 28 -44 17 2 23 10 23 28 0 18 -6 26 -23 28
-13 2 -25 -3 -28 -12z"/>
<path d="M1804 726 c-10 -26 4 -48 28 -44 17 2 23 10 23 28 0 18 -6 26 -23 28
-13 2 -25 -3 -28 -12z"/>
<path d="M1684 706 c-10 -26 4 -48 28 -44 17 2 23 10 23 28 0 18 -6 26 -23 28
-13 2 -25 -3 -28 -12z"/>
<path d="M1374 685 c-9 -22 3 -45 23 -45 10 0 26 -7 36 -15 25 -18 47 -9 47
21 0 22 -9 28 -36 25 -7 -1 -14 5 -18 14 -7 19 -45 20 -52 0z"/>
<path d="M1564 686 c-10 -26 4 -48 28 -44 17 2 23 10 23 28 0 18 -6 26 -23 28
-13 2 -25 -3 -28 -12z"/>
<path d="M1326 624 c-12 -12 -13 -20 -6 -35 12 -22 30 -25 48 -7 18 18 15 36
-7 48 -15 7 -23 6 -35 -6z"/>
<path d="M1581 586 c-17 -20 -3 -46 24 -46 29 0 38 13 30 40 -7 23 -37 26 -54
6z"/>
<path d="M1390 535 c-18 -21 -5 -45 25 -45 14 0 28 7 31 15 7 17 -12 45 -31
45 -7 0 -18 -7 -25 -15z"/>
<path d="M1460 465 c-17 -21 -5 -45 24 -45 27 0 42 26 25 46 -15 18 -33 18
-49 -1z"/>
<path d="M342 1034 c-51 -35 -48 -84 8 -152 26 -32 28 -38 15 -52 -30 -33 -14
-41 20 -11 20 17 39 31 43 31 4 0 13 -13 19 -30 22 -57 83 -32 83 35 0 41 -37
52 -90 25 -23 -12 -43 -20 -44 -18 -1 2 -16 20 -34 41 -18 21 -32 47 -32 59 0
20 1 21 20 3 11 -10 20 -24 20 -30 0 -52 91 -29 115 29 19 44 19 51 -1 70 -21
22 -112 21 -142 0z m122 -17 c23 -17 7 -63 -29 -79 -32 -15 -43 -4 -20 22 21
23 14 47 -17 60 -20 8 -19 9 13 9 19 1 43 -5 53 -12z m-64 -27 c12 -8 11 -10
-7 -10 -13 0 -23 5 -23 10 0 13 11 13 30 0z m110 -144 c0 -24 -26 -38 -40 -22
-6 9 -9 20 -5 26 9 15 45 12 45 -4z"/>
<path d="M582 824 c4 -21 22 -23 26 -1 2 10 -3 17 -13 17 -10 0 -15 -6 -13
-16z"/>
<path d="M517 778 c-27 -20 -36 -38 -18 -38 17 0 65 46 55 53 -5 3 -22 -4 -37
-15z"/>
<path d="M565 754 c-62 -42 -67 -54 -21 -54 42 0 54 -15 31 -40 -9 -10 -15
-24 -13 -31 6 -17 58 41 58 63 0 11 -10 20 -26 24 l-27 7 39 33 c51 43 23 42
-41 -2z"/>
<path d="M591 622 c-12 -23 3 -50 35 -62 20 -8 23 -15 18 -34 -3 -13 -1 -26 4
-30 10 -6 42 67 42 96 0 43 -79 67 -99 30z m75 -23 c18 -21 18 -21 -16 -17
-24 2 -36 9 -38 21 -5 24 30 22 54 -4z"/>
<path d="M679 491 c-32 -26 -16 -39 20 -18 41 24 50 22 66 -15 10 -25 15 -29
20 -17 3 8 1 28 -4 42 -9 22 -17 27 -45 27 -18 0 -44 -9 -57 -19z"/>
<path d="M745 406 c-35 -15 -95 -64 -95 -77 0 -16 19 -10 44 16 32 31 42 31
50 0 8 -33 54 -45 73 -20 16 23 17 67 1 83 -15 15 -35 15 -73 -2z m65 -40 c0
-17 -24 -38 -33 -29 -15 15 -6 43 13 43 11 0 20 -6 20 -14z"/>
<path d="M887 354 c-9 -9 4 -35 14 -28 5 3 9 12 9 20 0 14 -12 19 -23 8z"/>
<path d="M817 296 c-28 -22 -34 -36 -18 -36 16 0 65 46 55 52 -5 4 -21 -4 -37
-16z"/>
</g>
</svg>
